<svg xmlns="http://www.w3.org/2000/svg" data-name="S_SelectCircular_18_N@2x" height="36" id="S_SelectCircular_18_N_2x" viewBox="0 0 36 36" width="36">
  <defs>
    <style>
      .fill {
        fill: #6e6e6e;
      }

      
    </style>
  </defs>
  <path class="fill" d="M11.8,5.46l-.654-1.9A16.023,16.023,0,0,0,6,7.428L7.657,8.587A14.014,14.014,0,0,1,11.8,5.46Z" />
  <path class="fill" d="M5.608,11.493l-1.657-1.16a15.839,15.839,0,0,0-1.844,5.888H4.124A13.919,13.919,0,0,1,5.608,11.493Z" />
  <path class="fill" d="M4.124,19.777H2.1a16.021,16.021,0,0,0,2.145,6.36l1.6-1.206A13.892,13.892,0,0,1,4.124,19.777Z" />
  <path class="fill" d="M7.984,27.772l-1.606,1.21a15.869,15.869,0,0,0,5.273,3.7l.59-1.929A14.026,14.026,0,0,1,7.984,27.772Z" />
  <path class="fill" d="M18,32a13.978,13.978,0,0,1-2.357-.214l-.59,1.933a15.862,15.862,0,0,0,6.44-.116L20.84,31.71A14,14,0,0,1,18,32Z" />
  <path class="fill" d="M24.2,30.539l.653,1.9A16,16,0,0,0,30,28.569l-1.653-1.158A14.038,14.038,0,0,1,24.2,30.539Z" />
  <path class="fill" d="M31.874,19.777a13.9,13.9,0,0,1-1.484,4.728l1.656,1.159a15.842,15.842,0,0,0,1.844-5.887Z" />
  <path class="fill" d="M31.874,16.221H33.9A16.02,16.02,0,0,0,31.753,9.86l-1.6,1.207A13.887,13.887,0,0,1,31.874,16.221Z" />
  <path class="fill" d="M28.013,8.226,29.62,7.015a15.885,15.885,0,0,0-5.274-3.7l-.59,1.93A14.023,14.023,0,0,1,28.013,8.226Z" />
  <path class="fill" d="M18,4a14.07,14.07,0,0,1,2.356.213l.591-1.935a15.88,15.88,0,0,0-6.44.117l.653,1.894A14.059,14.059,0,0,1,18,4Z" />
  </svg>